
<svg xmlns="http://www.w3.org/2000/svg" version="1.1" xmlns:xlink="http://www.w3.org/1999/xlink" preserveAspectRatio="none" x="0px" y="0px" width="145px" height="40px" viewBox="0 0 145 40">
<defs>
<g id="Layer0_0_MEMBER_0_FILL">
<path fill="#000000" stroke="none" d="
M 55.9 9.3
Q 53.4 9.15 52 11.1 50.6 13.35 50.75 16 50.6 18.75 52 21 53.5 22.95 55.9 22.8 56.85 22.8 57.65 22.5 58.4 22.3 59 21.75 59.55 21.25 59.9 20.55 60.3 19.75 60.5 19
L 57.9 18.4
Q 57.65 19.3 57.25 19.9 56.7 20.6 55.8 20.5 54.8 20.6 54.2 19.65 53.65 18.45 53.75 17.2
L 53.75 14.9
Q 53.65 13.6 54.2 12.45 54.75 11.45 55.8 11.55 56.3 11.55 56.65 11.75 56.9 11.8 57.25 12.15
L 57.6 12.85 57.85 13.7 60.5 13
Q 60.25 12.15 59.9 11.45 59.45 10.75 59 10.35 58.4 9.85 57.65 9.6 56.75 9.3 55.9 9.3
M 67.7 9.3
Q 65.35 9.3 63.85 11.1 62.45 13.25 62.6 16 62.45 18.85 63.85 21 65.35 22.8 67.7 22.8 70 22.8 71.5 21 72.9 18.8 72.75 16 72.9 13.35 71.5 11.1 70 9.3 67.7 9.3
M 69.3 12.45
Q 69.85 13.6 69.75 14.9
L 69.75 17.15
Q 69.85 18.45 69.3 19.6 68.7 20.45 67.65 20.45 66.6 20.45 66 19.6
L 66.05 19.65
Q 65.55 18.6 65.55 17.2
L 65.55 14.9
Q 65.55 13.6 66 12.45 66.6 11.6 67.65 11.6 68.7 11.6 69.3 12.45
M 85.2 9.55
L 82.2 9.55 79.85 19.9 79.7 19.9 77.45 9.55 74.35 9.55 77.8 22.55 81.75 22.55 85.2 9.55
M 93.25 11.6
L 96.05 11.6 96.05 9.55 87.65 9.55 87.65 11.6 90.45 11.6 90.45 20.45 87.65 20.45 87.65 22.5 96.05 22.55 96.05 20.45 93.25 20.45 93.25 11.6
M 113 18.15
L 119 18.15 119 15.5 113 15.5 113 18.15
M 107.65 11.2
Q 106.1 9.3 103.75 9.55
L 99.55 9.55 99.55 22.55 103.75 22.55
Q 106.1 22.8 107.65 20.9 109.05 18.65 108.9 16 109.05 13.45 107.65 11.2
M 102.3 11.75
L 103.55 11.75
Q 104.7 11.65 105.4 12.55 106.05 13.55 105.95 14.85
L 105.95 17.2
Q 106.05 18.5 105.4 19.5 104.7 20.45 103.55 20.3
L 102.3 20.35 102.3 11.75
M 127.6 11.55
L 127.8 11.55 127.8 20.25 124.3 20.25 124.3 22.5 133.3 22.5 133.3 20.25 130.6 20.25 130.6 9.55 126.3 9.55 123.2 13.65 125 15 127.6 11.55
M 143.7 10.7
Q 143.2 10.15 142.15 9.7 141.25 9.35 140.05 9.35 138.95 9.35 138.05 9.7 137.2 10 136.5 10.7 135.9 11.35 135.5 12.15 135.15 12.9 135.15 13.95 135.15 14.85 135.45 15.65 135.8 16.45 136.25 16.9 136.85 17.5 137.5 17.75 138.25 18 139 18
L 140.1 17.85
Q 140.6 17.7 140.95 17.4
L 141.55 16.8 141.95 16.05 142.1 16.1
Q 141.95 16.9 141.45 17.85 141.1 18.6 140.3 19.45 139.2 20.55 138.6 21
L 136.45 22.6 140.3 22.6
Q 141.1 22.05 142 21.25 142.7 20.55 143.5 19.4 144.15 18.45 144.65 17 145.1 15.8 145.1 14.45 145.1 13.25 144.75 12.35
L 144.7 12.35
Q 144.4 11.5 143.7 10.7
M 142.15 13.5
L 142.15 13.75
Q 142.25 14.6 141.6 15.25 140.95 15.85 140.15 15.75 139.3 15.85 138.65 15.25
L 138.6 15.25
Q 138.05 14.6 138.1 13.75
L 138.1 13.5
Q 138.05 12.65 138.6 12 139.15 11.45 140.15 11.45 141.1 11.45 141.65 12 142.25 12.65 142.15 13.5 Z"/>
</g>

<g id="Layer0_0_MEMBER_1_FILL">
<path fill="#000000" stroke="none" d="
M 29.95 4.3
L 29.25 4.2 30.4 4.45
Q 30.1748046875 4.3962890625 29.95 4.3
M 33.3 5.35
Q 33.225 5.325 33.15 5.3 33.75 5.6 34.35 5.9 33.85 5.6 33.3 5.35
M 30.9 4.65
Q 30.764453125 4.5970703125 30.6 4.55
L 30.25 4.5 30.2 4.45 29.25 4.3 30.4 4.55
Q 30.65 4.5857421875 30.9 4.65
M 30.65 4.5
Q 30.5248046875 4.48203125 30.4 4.45 30.85 4.6 31.15 4.7 31.45 4.8 31.8 4.95 31.8763671875 4.971875 31.95 5 32.4771484375 5.156640625 32.95 5.35 33.0232421875 5.41171875 33.1 5.45 33.21484375 5.4958984375 33.35 5.55 33.291796875 5.52109375 33.25 5.5 33.116015625 5.410546875 32.95 5.3 32.7935546875 5.2330078125 32.6 5.15 32.3 5.05 31.95 4.9 31.35 4.7 30.65 4.5
M 40.85 11.5
Q 41.05 11.8 41.15 12 41.3 12.35 41.45 12.7 41.65 13.1 41.85 13.5
L 42.45 15.5
Q 42.55 15.8 42.55 16.1
L 42.65 16.7
Q 42.75 16.9 42.75 17.3 42.8 17.65 42.85 18
L 42.85 18.6 42.85 18.7
Q 42.85 18.9 42.85 19.4 42.85 20.2 42.75 20.9 42.7 21.65 42.5 22.45
L 42.15 24.1
Q 41.9 24.95 41.55 25.7 41.2 26.55 40.8 27.35 40.35 28.2 39.8 28.95
L 39.5 29.35
Q 39.35 29.5 39.2 29.75
L 38.15 30.9
Q 38.1 30.85 38.05 30.8 38.65 30.2 39.15 29.6 40.1 28.45 40.8 27.15 41.15 26.5 41.45 25.8 41.6 25.45 41.7 25.15 41.8 24.85 41.95 24.4 42.05 24.1 42.2 23.75
L 42.65 21.6
Q 42.75 20.8 42.75 20.1 42.8 19.35 42.85 18.6
L 42.75 17.9 42 14.95
Q 41.95 14.8 41.8 14.45 41.65 14 41.45 13.5
L 39.95 11 39.9 10.95 40.35 11.8
Q 40.55 12.1 40.65 12.3 40.8 12.55 40.95 12.9 41.15 13.4 41.25 13.7
L 41.65 14.7 41.9 15.65
Q 42 15.95 42.05 16.2
L 42.15 16.8
Q 42.15 17 42.25 17.4 42.25 17.7 42.3 18.05
L 42.35 19.4
Q 42.3 20.15 42.25 20.8 42.2056640625 21.155078125 42.15 21.5 42.0833984375 21.9330078125 42 22.35
L 41.95 22.5 42.15 21.5
Q 42.2 20.75 42.25 20.1 42.3 19.35 42.3 18.65
L 42.15 17.7 41.3 14.65
Q 41.1 14.15 40.85 13.7
L 40.7 13.45
Q 40.5 12.95 40.25 12.5 39.9 11.85 39.45 11.2 39.1 10.65 38.65 10.1
L 38.6 10.05
Q 38.6 9.95 38.65 9.9
L 38.6 9.75
Q 38.55 9.5 38.4 9.05
L 37.4 7.65 36.95 7.2
Q 36.7 7.05 36.45 6.8 36.2 6.65 35.9 6.45 35.4 6.15 34.95 6 34.65 5.9 34.45 5.9 33.85 5.6 33.35 5.3 33.278515625 5.276171875 33.2 5.25 33.8 5.55 34.35 5.9
L 34.3 5.9 34.25 5.9
Q 33.8 5.65 33.25 5.4 32.9 5.25 32.65 5.1 32.2 4.85 31.95 4.8 31.5755859375 4.6560546875 31.2 4.55 30.9255859375 4.463671875 30.65 4.4 30.3 4.35 29.9 4.25 29.8283203125 4.23984375 29.75 4.2
L 30.45 4.4
Q 30.85 4.5 31.15 4.6 31.4 4.65 31.85 4.8 32.55 5.1 33.15 5.4
L 33.4 5.5
Q 33.8125 5.7125 34.15 5.9
L 34.1 5.9
Q 33.8185546875 5.7427734375 33.45 5.6 33.7837890625 5.7603515625 34.1 5.95 34 5.95 33.95 6
L 33.9 6.05 33.85 6
Q 33.25 5.7 32.6 5.35 31.95 5.1 31.2 4.85 30.45 4.6 29.7 4.45 29.55 4.4 29.3 4.35
L 29.25 4.3
Q 29.3 4.25 29.25 4.2 29.2 4.15 29.25 4.1
L 29.2 4.05
Q 29.45 4.1 29.7 4.15
L 29.95 4.2 30 4.2 30.05 4.2 30.45 4.3
Q 30.85 4.4 31.2 4.55 31.6 4.65 31.9 4.75 32.41171875 4.9205078125 33 5.15 32.833984375 5.0919921875 32.65 5 32.3 4.85 32 4.75 31.817578125 4.6798828125 31.6 4.6 31.153515625 4.4439453125 30.65 4.3
L 29.7 4.05 29.65 4 29.3 3.95
Q 29.2 3.95 29.15 3.9 29.1 3.85 29.05 3.8
L 28.7 3.45
Q 28.6 3.35 28.45 3.3
L 28.2 3.15
Q 27.95 3 27.6 2.85 27.25 2.7 26.85 2.6 26.4 2.55 26 2.45
L 25.1 2.45
Q 24.6 2.45 24.2 2.55 23.75 2.6 23.35 2.7 22.95 2.8 22.65 3 22.3 3.15 22 3.35
L 21.8 3.55
Q 21.7 3.65 21.55 3.8
L 21.4 3.95
Q 21.3 4.05 21.25 4.2
L 21.15 4.4
Q 21 4.45 20.8 4.55 20.15 4.8 19.55 5.1 18.9 5.35 18.2 5.75 18.05 5.7 17.95 5.6 17.8 5.55 17.65 5.5
L 17.35 5.4
Q 17.1 5.35 17 5.35
L 16.6 5.35
Q 16.5 5.35 16.4 5.35
L 16.15 5.4
Q 15.7 5.45 15.25 5.6 14.8 5.75 14.3 5.95 13.8 6.25 13.35 6.6
L 12.4 7.35 12 7.75
Q 11.95 7.8 11.8 8.05
L 11.6 8.25
Q 11.3 8.75 11.05 9.2 10.85 9.7 10.65 10.2 10.55 10.7 10.55 11.1
L 10.6 11.95
Q 10.65 12.1 10.7 12.35
L 10.75 12.4 10.85 12.7
Q 10.95 12.8 11 12.95 11.15 13.1 11.25 13.2 11.35 13.3 11.45 13.4 11.25 13.9 11.05 14.5 10.9 14.95 10.8 15.15
L 10.6 16.25
Q 10.5 16.25 10.35 16.3 10.25 16.3 10.05 16.3
L 9.75 16.4
Q 9.6 16.45 9.5 16.55 9.4 16.55 9.35 16.6
L 9.3 16.65 9 16.85 8.7 17.15
Q 8.45 17.5 8.25 17.8 8.05 18.2 7.85 18.6 7.75 19 7.65 19.5
L 7.5 20.75 7.55 20.8 7.6 21.45
Q 7.7 21.85 7.85 22.3 8 22.75 8.2 23.05 8.45 23.4 8.7 23.65
L 8.95 23.9
Q 9.1 24.05 9.25 24.1
L 9.55 24.3 9.85 24.4
Q 10 24.45 10.2 24.45 10.35 24.5 10.55 24.5 10.65 24.5 10.85 24.5
L 11.1 25.15
Q 11.25 25.6 11.4 25.85 11.5 26.15 11.7 26.55
L 12 27.1
Q 12.1595703125 27.3890625 12.3 27.65 12.3818359375 27.77265625 12.45 27.9
L 12.75 28.4
Q 12.9 28.65 13.05 28.9 12.95 29 12.85 29.1 12.75 29.2 12.65 29.3 12.6 29.45 12.5 29.55 12.5 29.65 12.45 29.8 12.35 29.9 12.35 30.1
L 12.35 30.2
Q 12.3 30.25 12.3 30.35
L 12.3 30.65
Q 12.25 30.7 12.25 30.8
L 12.35 31.3 12.45 31.6
Q 12.5 31.75 12.55 31.9 12.7 32.25 12.85 32.5 13.05 32.8 13.35 33.1
L 13.8 33.55 13.85 33.5 14 33.65
Q 14.1 33.75 14.2 33.75
L 14.45 33.9
Q 14.6 33.95 14.75 34
L 14.95 34.1 16 34.15
Q 16.15 34.1 16.3 34.05 16.4 34.05 16.55 34 16.6 33.95 16.7 33.95
L 16.8 33.85
Q 16.95 33.8 17.05 33.7 17.15 33.6 17.3 33.55 17.4 33.45 17.45 33.3 17.7 33.45 17.95 33.6 18.55 34 19.25 34.3 19.85 34.6 20.55 34.9 20.95 35 21.3 35.15
L 23.45 35.7
Q 23.7 35.75 23.95 35.8 23.9 36.05 24 36.35 24.05 36.4 24.05 36.5 24.15 36.6 24.15 36.7
L 24.25 36.8 24.4 37.05
Q 24.75 37.4 25.15 37.6 25.6 37.75 26.05 37.8 26.15 37.8 26.35 37.8
L 26.85 37.7 27.05 37.6 27.2 37.55
Q 27.3 37.45 27.4 37.45
L 27.7 37.15
Q 27.8 37.05 27.9 36.95
L 28 36.75
Q 28.05 36.7 28.05 36.6
L 28.15 36.4
Q 28.15 36.3 28.2 36.15
L 28.25 36
Q 28.8 35.95 29.35 35.8 30.1 35.75 30.85 35.5 31.55 35.3 32.25 35 32.55 34.9 32.95 34.8 33.25 34.6 33.6 34.45 33.95 34.3 34.3 34.15
L 36.2 32.95
Q 36.5 32.75 36.8 32.55 36.9 32.55 37.05 32.6 37.15 32.6 37.25 32.6 37.35 32.6 37.4 32.55
L 37.5 32.55 37.65 32.5 37.85 32.4 38.15 32.1 38.25 31.9 38.3 31.65 38.25 31.4
Q 38.3 31.35 38.3 31.25 38.4 31.15 38.5 31.05 39.05 30.5 39.55 29.9 40.5 28.75 41.25 27.4 41.6 26.75 41.9 26.05 42 25.75 42.15 25.3 42.35 24.9 42.45 24.6 42.55 24.2 42.7 23.85
L 43.15 21.6
Q 43.25 20.9 43.3 20.15 43.35 19.4 43.35 18.6 43.3 18.25 43.3 18.05
L 43.2 17.45
Q 43.15 17 43.1 16.95
L 42.55 14.8
Q 42.45 14.6 42.35 14.3 42.2 13.85 41.95 13.3 41.8 13.05 41.65 12.8
L 40.7 11.05 40.65 11 40.25 10.5 40.5 10.85 40.85 11.5
M 40.65 14
Q 40.9 14.65 41.1 15.45 41.2 15.85 41.3 16.25
L 40.95 15.3
Q 40.85 15.1 40.75 14.8 40.6 14.35 40.35 13.9 40.3 13.75 40.15 13.5
L 39.8 12.85 38.95 11.65 39.35 12.3
Q 39.4 12.45 39.65 12.8 39.8 13.15 39.95 13.4 40.1 13.85 40.25 14.1
L 40.85 15.9
Q 40.9 16.25 40.95 16.4
L 41.1 16.95
Q 41.15 17.4 41.15 17.5 41.2 17.85 41.2 18.15
L 41.25 18.7
Q 41.3 19.15 41.25 19.4 41.3 20.05 41.2 20.75 41.15 21.5 41 22.15
L 40.95 22.6 40.9 22.65 40.9 22.85 40.7 23.65
Q 40.5 24.45 40.2 25.15 39.9 25.95 39.5 26.65 39.1 27.45 38.65 28.1
L 37.85 29.2 37 30.05
Q 36.9484375 30.0984375 36.9 30.05 37.55 29.4 38.1 28.75 38.9 27.65 39.55 26.5 39.8 25.95 40.1 25.25 40.2 24.95 40.3 24.65 40.4 24.35 40.55 24 40.65 23.6 40.7 23.35
L 40.9 22.65 41.1 21.35
Q 41.2 20.65 41.2 20.05 41.25 19.3 41.2 18.65 41.2 18.45 41.15 18.2
L 41.1 17.95 41.1 17.85 40.25 15
Q 40.05 14.5 39.8 14.15 39.75 13.9 39.6 13.75
L 39.25 13.1 38.3 11.75 38.85 12.6
Q 38.9 12.75 39.1 13.05 39.25 13.4 39.4 13.65 39.6 14.05 39.7 14.35
L 40.1 15.35
Q 40.1 15.45 40.15 15.6
L 40.5 17.05
Q 40.6 17.35 40.65 17.6 40.65 17.8 40.7 18.15
L 40.7 18.75
Q 40.75 19.1 40.75 19.4 40.75 20 40.7 20.65 40.65 21.4 40.5 22.05
L 40.45 22.5 40.2 23.55
Q 40 24.25 39.75 25 39.45 25.7 39.1 26.45 38.7 27.25 38.25 27.9
L 37.75 28.5
Q 37.75 28.6 37.45 28.9
L 37.2 29.25
Q 37.1 29.35 36.9 29.55
L 36.6 29.85
Q 36.45 30 36.3 30.15
L 36.2 30.25 36.05 30.3 35.95 30.4 35.2 31.05
Q 35.1 31.15 34.85 31.3
L 32.45 32.8 30.15 33.7
Q 29.7 33.85 29.2 33.95 28.45 34.1 27.65 34.2
L 27.5 33.95 26.9 33.55 26.85 33.5 26.65 33.5 26.5 33.45 26.25 33.4 26.05 33.4
Q 25.7 33.45 25.35 33.6 25 33.75 24.7 34.05
L 24.6 34.15 24.15 34.1
Q 23.55 34 23.1 33.95
L 23 33.85 21.85 33.6 21.1 33.35
Q 20.05 33 19.15 32.5 18.6 32.25 18.1 31.95
L 18.1 31.75
Q 18.1 31.65 18.15 31.5 18.15 31.3 18.15 31.2
L 17.95 30.2
Q 17.85 30 17.8 29.95
L 17.75 29.8 17.5 29.55 17.55 29.5 17.15 29.1
Q 16.9 28.95 16.75 28.8 16.5 28.65 16.25 28.6 16.2 28.55 16.05 28.5
L 15.9 28.45
Q 15.85 28.4 15.75 28.4
L 14.75 28.3
Q 14.55 28.3 14.45 28.3 14.35 28.3 14.3 28.35
L 14.25 28.3 13.95 27.9 13.1 26.45
Q 12.5 25.45 12.15 24.5 12.1 24.25 11.95 24
L 12.05 24
Q 12.15 23.9 12.25 23.8
L 12.7 23.35
Q 12.85 23.2 12.9 23.05
L 13.05 22.8
Q 13.2 22.55 13.35 22.2 13.45 21.9 13.5 21.65 13.55 21.3 13.6 20.95
L 13.5 19.75 13.45 19.6
Q 13.4 19.25 13.3 18.95 13.2 18.65 13 18.35 12.9 18.05 12.7 17.75
L 12.6 17.65
Q 12.6 17.55 12.55 17.5
L 12.3 17.25 12.15 17
Q 12.1 16.95 11.9 16.85
L 11.7 16.65
Q 11.65 16.6 11.5 16.55
L 11.45 16.5 12.2 13.95
Q 12.25 13.8 12.25 13.7 12.4 13.75 12.5 13.75 12.65 13.8 12.85 13.8 13.05 13.8 13.15 13.8
L 13.5 13.75
Q 13.65 13.7 13.8 13.65
L 14.5 13.35
Q 14.85 13.2 15.1 13.05 15.4 12.85 15.75 12.6 16 12.35 16.3 12.05
L 16.8 11.45 16.85 11.4 17.3 10.85 17.35 10.7
Q 17.55 10.4 17.75 10 17.95 9.7 18.15 9.3 18.3 8.95 18.45 8.6
L 18.65 7.9
Q 18.7 7.75 18.7 7.65
L 18.75 7.3
Q 18.75 7.1 18.75 7 18.8 6.85 18.75 6.7 18.75 6.6 18.7 6.45 18.65 6.4 18.6 6.35 19.05 6.1 19.45 5.9 20.15 5.6 20.85 5.3 21 5.25 21.25 5.2 21.35 5.3 21.35 5.4 21.45 5.5 21.5 5.55
L 21.75 5.7
Q 21.85 5.8 21.95 5.8
L 22.15 5.9
Q 22.3 5.95 22.4 5.95
L 22.7 6.05
Q 22.95 6.1 23.25 6.2 23.5 6.15 23.85 6.2 24.55 6.2 25.35 6.1
L 25.55 6.1 25.6 6.05 25.9 6.05 25.95 6 26.05 6
Q 26.4 5.95 26.75 5.9 27.05 5.8 27.35 5.7 27.75 5.6 27.95 5.5
L 28.85 5.1
Q 28.9 5.05 29 4.95 29.1 4.85 29.15 4.8 29.2 4.75 29.2 4.65
L 29.25 4.7
Q 29.45 4.7 29.65 4.8 30.35 4.9 31.1 5.15 31.85 5.4 32.45 5.7 33.1 5.95 33.75 6.3 33.7 6.35 33.75 6.4 33.75 6.5 33.8 6.65 33.85 6.7 33.85 6.8 33.9 6.85 33.95 6.9
L 34 7.05 34.85 7.9
Q 35.05 8.1 35.25 8.3 35.6 8.55 35.7 8.65
L 36.65 9.4
Q 37.1 9.65 37.45 9.9
L 38.15 10.2
Q 38.2 10.25 38.25 10.2 38.3 10.25 38.35 10.2
L 38.4 10.25
Q 38.85 10.8 39.25 11.4 39.6 11.95 40 12.65 40.35 13.3 40.65 14
M 41.75 21.1
Q 41.7 21.25 41.7 21.35
L 41.7 21.4
Q 41.6123046875 21.83828125 41.5 22.25
L 41.4 22.75 41.45 22.8 41.15 23.8
Q 41 24.55 40.7 25.35 40.35 26.1 39.95 26.9 39.55 27.7 39.05 28.4
L 38.5 29.15 37.5 30.25
Q 37.45 30.2 37.4 30.25 37.95 29.6 38.45 29 39.3 27.95 39.95 26.7 40.25 26.1 40.5 25.45 40.65 25.1 40.75 24.8 40.9 24.55 41 24.15 41.1 23.85 41.2 23.45
L 41.6 21.45
Q 41.662890625 21.0087890625 41.7 20.55 41.7076171875 20.7462890625 41.7 20.9 41.7189453125 21.006640625 41.75 21.1
M 41.5 24.35
Q 41.6 23.95 41.7 23.55
L 41.8 23.15 41.65 23.9
Q 41.4 24.75 41.1 25.55 41.050390625 25.64921875 41 25.75 41.25 25.1 41.5 24.35
M 21.2 4.45
Q 21.15 4.5 21.15 4.6 21.1 4.65 21.15 4.7
L 21.15 4.8
Q 21.04921875 4.9 20.95 4.9 20.45 5.1 19.95 5.3 19.85 5.4 19.7 5.45 19.6666015625 5.467578125 19.6 5.45 19.565234375 5.5099609375 19.5 5.55 19.428125 5.5740234375 19.35 5.6 18.95 5.8 18.5 6.05
L 18.45 6 18.35 5.9 19.7 5.15
Q 20 5.05 20.15 5
L 20.4 4.85
Q 19.9716796875 5.037890625 19.55 5.2 18.95 5.5 18.3 5.85
L 18.25 5.8 20.1 4.85
Q 20.2 4.85 20.55 4.7
L 21.2 4.45
M 12 13.85
Q 12 13.75 12.1 13.65
L 12.15 13.7
Q 12 14.15 11.85 14.7 11.75 15.1 11.65 15.4
L 11.5 16.05 11.45 16.2 11.45 16.3 11.4 16.45 11.3 16.45 11.4 15.85 12 13.85
M 11.55 13.4
Q 11.6 13.45 11.65 13.5 11.45 14 11.25 14.5 11.1 14.85 11.05 15.2
L 10.95 15.6 10.9 15.65 10.9 15.75
Q 10.8625 15.7875 10.85 15.8
L 10.9 15.85
Q 10.85 16 10.8 16.15 10.75 16.2 10.75 16.3 10.7 16.25 10.65 16.3
L 11.4 13.65
Q 11.45 13.5 11.55 13.4
M 11.65 14.6
Q 11.55 14.9 11.45 15.3
L 11.25 16.4
Q 11.15 16.4 11.1 16.35
L 11.15 16 11.2 15.95
Q 11.35 15.2 11.65 14.5 11.8 14.05 12 13.65 11.85 14.1 11.65 14.6
M 11.9 24.55
Q 11.8 24.35 11.75 24.2
L 11.85 24.1 11.9 24.15 12.15 24.8
Q 12.3 25.15 12.4 25.45 12.5 25.65 12.7 26.05
L 13 26.65
Q 13.1 26.85 13.35 27.2
L 13.75 27.8
Q 13.95 28.1 14.1 28.35 14.05 28.4 13.95 28.4
L 13.45 27.6 13.4 27.55 12.85 26.6
Q 12.25 25.6 11.9 24.55
M 11.5 24.25
Q 11.6 24.25 11.65 24.2
L 11.85 24.9
Q 12 25.25 12.15 25.5 12.25 25.8 12.4 26.15
L 12.75 26.8
Q 12.95 27.1 13.1 27.35
L 13.5 27.95
Q 13.65 28.2 13.8 28.45 13.75 28.5 13.7 28.45
L 13.65 28.5 13.55 28.3 12.6 26.75
Q 12 25.75 11.65 24.7 11.55 24.5 11.5 24.25
M 11.3 24.35
Q 11.348828125 24.301171875 11.4 24.35
L 11.6 24.95
Q 11.75 25.3 11.9 25.65 12.05 26 12.2 26.25
L 12.55 26.9
Q 12.7 27.25 12.85 27.5
L 13.25 28.1
Q 13.4 28.35 13.55 28.6 13.45 28.6 13.4 28.65
L 12.3 26.85
Q 12.1314453125 26.4919921875 12 26.15 11.95 26.1 11.85 26
L 11.65 25.5
Q 11.54375 25.14375 11.45 24.8 11.4 24.55 11.3 24.35
M 18 32.25
Q 18.05 32.2 18.05 32.1 18.35 32.3 18.6 32.45 19.75 33.1 21.05 33.6 21.35 33.7 21.7 33.75
L 23.15 34.2 23.7 34.25
Q 24.05 34.3 24.4 34.35 24.35 34.4 24.3 34.45
L 24.1 34.45
Q 23.5 34.35 23 34.25
L 22.25 34.1 20.95 33.7
Q 19.85 33.3 18.95 32.8 18.5 32.55 18 32.25
M 17.75 32.9
Q 17.8 32.85 17.85 32.8 18.05 32.9 18.25 33 19.5 33.75 20.8 34.25 21.1 34.35 21.5 34.45
L 23.55 35
Q 23.8 35.05 24.05 35.1
L 23.95 35.2
Q 23.35 35.1 22.85 35
L 22.8 34.95 20.7 34.35
Q 19.6 33.95 18.65 33.4 18.2 33.15 17.75 32.9
M 17.95 32.6
L 17.9 32.55
Q 17.95 32.5 18 32.45 18.2 32.55 18.4 32.75 19.6 33.45 20.95 33.9 21.3 34.05 21.6 34.15
L 23.65 34.6
Q 23.9 34.65 24.15 34.7 24.15 34.8 24.1 34.85
L 24.05 34.8
Q 23.45 34.7 22.95 34.6
L 20.85 34
Q 19.8 33.65 18.75 33.1 18.35 32.9 17.95 32.6
M 38.05 30.2
Q 38.075 30.175 38.1 30.15
L 38.1 30.1
Q 38.3828125 29.865625 38.6 29.6
L 38.7 29.65 37.85 30.5 38.05 30.2
M 34.3 32.15
L 35.15 31.5
Q 35.45 31.3 35.75 31.1
L 35.8 31.15 35.75 31.2 35.45 31.4
Q 35.3 31.55 35.1 31.65
L 34.1 32.35 32 33.45 30.25 34.1
Q 29.8 34.25 29.3 34.35 28.6 34.45 27.9 34.55 27.85 34.5 27.85 34.4 28.45 34.4 29.1 34.25 30.35 34 31.65 33.5 31.95 33.4 32.25 33.2
L 32.9 32.95
Q 33.2 32.75 33.45 32.6
L 34.3 32.15
M 33.25 33.8
L 33.2 33.85 32.1 34.35 30.5 34.85
Q 29.95 35 29.45 35.1 29.2447265625 35.1474609375 29.05 35.2 28.986328125 35.2099609375 28.9 35.2 28.5501953125 35.2916015625 28.2 35.35 28.2 35.25 28.15 35.2 28.7 35.15 29.2 35.05 29.9 34.95 30.6 34.75 31.35 34.5 31.95 34.3 32.35 34.1 32.6 33.95 32.9 33.85 33.25 33.7 33.55 33.5 33.9 33.35
L 34.85 32.8 34.9 32.75 35.65 32.25
Q 35.1443359375 32.687109375 34.6 33.05 33.9 33.45 33.25 33.8
M 33.05 33.3
Q 33.25 33.2 33.65 33
L 35.45 31.9
Q 35.65 31.7 35.85 31.6 35.9 31.65 35.85 31.7
L 34.2 32.85 31.4 34.15
Q 31.1 34.25 30.9 34.35
L 30.35 34.5
Q 29.8 34.65 29.35 34.7 28.7 34.85 28.1 34.95 28.05 34.9 28.05 34.8 28.6 34.75 29.1 34.65 30.45 34.4 31.8 33.85 32.25 33.7 32.45 33.6 32.8 33.45 33.05 33.3
M 33.75 33.9
Q 33.95 33.825 34.1 33.75
L 35.95 32.6
Q 36.2 32.45 36.35 32.3
L 36.4 32.35 35.45 33.1 34.55 33.6
Q 34.45 33.7 34.1 33.85
L 32.15 34.8 31.6 34.95
Q 31.4 35.05 31.15 35.1
L 30.95 35.2 30.6 35.25
Q 30.05 35.4 29.55 35.5 28.9 35.65 28.25 35.7
L 28.2 35.65 28.25 35.6
Q 28.65 35.6 29.1 35.55 29.85 35.4 30.55 35.2 31.35 35 32.05 34.7 32.314453125 34.58671875 32.55 34.45
L 32.75 34.4
Q 33.1 34.25 33.45 34.1 33.55 34 33.65 34
L 33.75 33.9
M 21.1 4.75
L 21.15 4.7
Q 21 4.75 20.95 4.8 20.25 5 19.6 5.35 19 5.65 18.45 6
L 21.1 4.75
M 20.9 4.65
Q 20.8345703125 4.678125 20.75 4.7 20.9701171875 4.6490234375 21 4.6 20.970703125 4.6263671875 20.9 4.65
M 26.45 30.3
Q 26.75 30 26.75 29.6 26.75 29.2 26.45 28.9 26.15 28.6 25.75 28.6 25.35 28.6 25.05 28.9 24.75 29.2 24.75 29.6 24.75 30 25.05 30.3 25.35 30.6 25.75 30.6 26.15 30.6 26.45 30.3
M 33.35 29.2
Q 34.2 29.25 34.8 28.65 35.35 28.1 35.3 27.25 35.3 26.45 34.75 25.9 34.15 25.3 33.35 25.3 32.55 25.3 32 25.85 31.4 26.45 31.4 27.25 31.4 28.05 32 28.65 32.55 29.2 33.35 29.2
M 20.05 26.7
Q 19.85 26.5 19.5 26.45 19.2 26.45 18.95 26.7 18.7 26.95 18.7 27.25 18.75 27.6 18.95 27.8 19.2 28.05 19.5 28.05 19.8 28.05 20.05 27.8 20.3 27.55 20.3 27.25 20.3 26.95 20.05 26.7
M 14.55 19.5
Q 14.25 19.8 14.25 20.2 14.25 20.6 14.55 20.9 14.85 21.2 15.25 21.2 15.65 21.2 15.95 20.9 16.2 20.65 16.25 20.2 16.25 19.8 15.95 19.5 15.65 19.2 15.25 19.2 14.8 19.25 14.55 19.5
M 34.85 23.3
Q 35.05 23.5 35.3 23.55 35.55 23.5 35.75 23.3 35.95 23.1 36 22.85 36 22.55 35.8 22.35 35.6 22.15 35.3 22.15 35 22.15 34.8 22.35 34.6 22.55 34.6 22.85 34.65 23.1 34.85 23.3
M 35.95 17.5
Q 35.65 17.8 35.65 18.2 35.65 18.6 35.9 18.85 36.2 19.15 36.6 19.15 37 19.15 37.3 18.85 37.6 18.55 37.6 18.15 37.6 17.75 37.3 17.45 37.05 17.2 36.65 17.2 36.25 17.2 35.95 17.5
M 28.8 21.75
Q 29.2 21.75 29.5 21.45 29.8 21.15 29.8 20.75 29.8 20.35 29.5 20.05 29.2 19.75 28.8 19.75 28.4 19.75 28.1 20.05 27.8 20.35 27.8 20.75 27.8 21.15 28.1 21.45 28.4 21.75 28.8 21.75
M 22.3 22.75
Q 22.7 22.75 23 22.45 23.3 22.15 23.3 21.75 23.25 21.3 23 21.05 22.7 20.75 22.3 20.75 21.9 20.75 21.6 21.05 21.3 21.35 21.3 21.75 21.3 22.15 21.6 22.45 21.85 22.7 22.3 22.75
M 20.4 14.25
Q 20.75 13.9 20.7 13.45 20.7 12.95 20.35 12.6 20 12.25 19.5 12.25 19.05 12.2 18.7 12.55 18.35 12.9 18.35 13.4 18.35 13.9 18.7 14.25 19.05 14.6 19.55 14.6 20.05 14.6 20.4 14.25
M 26.25 14.6
Q 26.65 14.6 26.9 14.35 27.2 14.05 27.2 13.65 27.2 13.25 26.9 12.95 26.65 12.7 26.2 12.65 25.8 12.65 25.5 12.95 25.25 13.2 25.25 13.6 25.3 14.05 25.55 14.3 25.85 14.6 26.25 14.6
M 24.4 8.15
Q 24.4 8.55 24.7 8.85 24.95 9.1 25.35 9.1 25.75 9.1 26 8.85 26.3 8.55 26.3 8.15 26.3 7.75 26.05 7.5 25.75 7.2 25.35 7.2 24.95 7.2 24.65 7.5 24.4 7.75 24.4 8.15
M 34.45 12.3
Q 34 11.85 33.4 11.85 32.7 11.85 32.25 12.3 31.8 12.75 31.8 13.45 31.8 14.05 32.25 14.5 32.75 15 33.35 15 34.05 15 34.5 14.55 34.95 14.1 34.95 13.4 34.95 12.8 34.45 12.3 Z"/>
</g>

<g id="Layer0_0_MEMBER_2_FILL">
<path fill="#000000" stroke="none" d="
M 72.2 29.15
L 72.2 27.9 69.55 27.9 69.55 27.05 72.5 27.05 72.5 25.75 68 25.75 68 31.35 72.55 31.35 72.55 30.05 69.55 30.05 69.55 29.15 72.2 29.15
M 77.85 25.75
L 76.3 25.75 76.3 31.35 77.85 31.35 77.85 29.9 78.4 29.25 79.8 31.35 81.7 31.35 79.5 28.15 81.6 25.75 79.8 25.75 77.85 28 77.85 25.75
M 59.25 25.75
L 59.25 31.35 60.8 31.35 60.8 29.65 61.5 29.65 62.6 31.35 64.4 31.35 63.05 29.4
Q 64.2 28.9 64.2 27.7 64.2 26.85 63.7 26.35 63.1 25.75 61.9 25.75
L 59.25 25.75
M 61.8 27.1
Q 62.65 27.1 62.65 27.75 62.65 28.45 61.8 28.45
L 60.8 28.45 60.8 27.1 61.8 27.1
M 53.9 27.1
L 55.6 27.1 55.6 25.75 50.7 25.75 50.7 27.1 52.35 27.1 52.35 31.35 53.9 31.35 53.9 27.1
M 89.6 27.05
L 89.6 25.75 85.1 25.75 85.1 31.35 89.65 31.35 89.65 30.05 86.65 30.05 86.65 29.15 89.3 29.15 89.3 27.9 86.65 27.9 86.65 27.05 89.6 27.05
M 97.2 29.4
Q 98.35 28.9 98.35 27.7 98.35 26.85 97.85 26.35 97.25 25.75 96.05 25.75
L 93.4 25.75 93.4 31.35 94.95 31.35 94.95 29.65 95.65 29.65 96.75 31.35 98.55 31.35 97.2 29.4
M 95.95 28.45
L 94.95 28.45 94.95 27.1 95.95 27.1
Q 96.8 27.1 96.8 27.75 96.8 28.45 95.95 28.45 Z"/>
</g>
</defs>

<g transform="matrix( 1, 0, 0, 1, 0,0) ">
<use xlink:href="#Layer0_0_MEMBER_0_FILL"/>
</g>

<g transform="matrix( 1, 0, 0, 1, -1,0) ">
<use xlink:href="#Layer0_0_MEMBER_1_FILL"/>
</g>

<g transform="matrix( 1, 0, 0, 1, 0,0) ">
<use xlink:href="#Layer0_0_MEMBER_2_FILL"/>
</g>
</svg>
