
<svg xmlns="http://www.w3.org/2000/svg" version="1.1" xmlns:xlink="http://www.w3.org/1999/xlink" preserveAspectRatio="none" x="0px" y="0px" width="1000px" height="1000px" viewBox="0 0 1000 1000">
<defs>
<filter id="Filter_1" x="-20%" y="-20%" width="140%" height="140%" color-interpolation-filters="sRGB">
<feColorMatrix in="SourceGraphic" type="matrix" values="0 0 0 0 0 0 0 0 0 0 0 0 0 0 0 0 0 0 1 0" result="result1"/>
</filter>

<g id="logo_0_Layer2_0_FILL">
<path fill="#000000" stroke="none" d="
M -11.55 -204.65
L -10.4 -204.65
Q -9.76875 -204.675 -9.15 -204.7 -10.339453125 -204.6763671875 -11.55 -204.65
M 83.75 -165.85
Q 84.65 -165.45 86.4 -164.5
L 103.05 -154.45
Q 106.2 -152.3 108.75 -150.35 110.9 -148.75 114.55 -145.85
L 120.35 -140.85
Q 123.7 -137.85 126.1 -135.45 132.1 -129.55 137.45 -123.25 143.05 -116.65 148.35 -109.2
L 151.6 -104.45
Q 151.65 -104.4 151.75 -104.25
L 158.5 -93.35
Q 163.4 -85 167.5 -75.95 171.7 -66.85 174.85 -56.95 178.25 -46.35 180.05 -36.45
L 181.75 -25.75
Q 181.8 -25.55 182.35 -20.25
L 182.75 -14.75
Q 182.9 -12.85 183 -9.15
L 183.1 -3.45
Q 183.1 -0.65 182.95 2.2
L 181.55 19.6
Q 181.35 21.55 180.75 25.45
L 177.95 40.2 172.4 60.05 168.95 69.45 159.7 89.15
Q 156.8 94.55 153.25 100 146.5 110.55 137.85 120.4 129.75 129.7 119.3 138.75 117.55 140.3 114.2 142.95
L 108.95 147.05
Q 103 151.5 97.95 154.75
L 97.25 155.25 96.85 155.45 83.55 163.45 74.5 168.1
Q 62.2 174.05 49.3 178.05 36.05 182.2 22.75 184.1 9 186.15 -4.65 186 -18.15 185.95 -32.3 183.85
L -38.35 182.9 -59.6 178
Q -73.6 174.05 -85.8 168.55 -98.5 162.95 -110.2 155.4 -121.7 148 -132.2 138.7 -142.3 129.6 -151.35 118.9
L -151.9 118.2 -152.2 117.9 -163.85 102.45 -171.2 90.9 -180.75 72.85
Q -186.4 60.75 -190.35 47.8
L -194.25 32.55 -197.15 13.9 -198.05 -9.15 -198 -9.55 -198 -11.2 -197.95 -11.6 -197.9 -13.6 -197.85 -14 -197.75 -16.4 -197.7 -16.8
Q -197.35 -22.8 -196.55 -29.5
L -195.65 -35.8
Q -195.25 -38.75 -194.6 -42.05
L -192.35 -52.75 -192.3 -53.15 -189 -65.5 -182.65 -83.4
Q -181.15 -87.1 -180.3 -88.9 -178.9 -92.15 -177.85 -94.3 -175.8 -98.45 -175.15 -99.6
L -168.7 -111 -161.55 -121.75 -156.45 -128.5
Q -152.95 -132.8 -149.3 -137 -142.05 -145.1 -133.95 -152.25 -126.35 -159.05 -117.8 -165.25
L -101.25 -176.25
Q -97.3 -178.55 -92.95 -180.95 -89.75 -182.7 -84.65 -185.2 -76.25 -189.25 -68.35 -192.2 -60.85 -195.05 -52.5 -197.4
L -30.2 -202.1 -16.7 -203.65
Q -24.50234375 -203.073046875 -32.3 -201.85 -49.95 -199 -66.9 -192.8 -70.85 -191.4 -75.25 -189.55 -79.6 -187.75 -83.4 -185.9 -91.15 -182.25 -99.2 -177.55
L -103.05 -175.25 -103.55 -175 -114.25 -167.95
Q -121.4 -163 -128.5 -157.2 -135.25 -151.65 -141.7 -145.25 -145.15 -141.8 -147.9 -138.85
L -153.75 -132.2
Q -165.15 -118.5 -173.75 -102.95 -177.95 -95.3 -181.55 -87.1 -185.1 -78.85 -187.85 -70.55 -190.5 -62.5 -192.7 -53.5
L -193.85 -48.4 -193.95 -48.1 -194.6 -44.85
Q -195.4 -41 -196.15 -36.15 -197.5 -27.95 -198.2 -18.6 -198.5 -14.2 -198.65 -9.8 -198.8 -5.85 -198.7 -0.95 -198.55 8.25 -197.55 16.55 -196.5 25.8 -194.75 33.85 -193 42.25 -190.3 50.8 -187.8 58.7 -184.25 67.3 -181.15 74.7 -176.75 83.15 -174.2 87.85 -172.45 90.8
L -167.75 98.55 -167.6 98.75 -166.7 100.2 -166.35 100.65 -166.25 100.85 -163 105.6
Q -159.6 110.4 -157.85 112.7 -152.65 119.5 -146.65 126.2 -134.7 139.3 -120.95 149.7 -107.2 160.05 -91.3 167.85
L -83.4 171.45
Q -78.5 173.55 -75.3 174.7 -71.8 176.05 -67.1 177.6
L -58.75 180.15
Q -55.65 181.05 -50.3 182.35
L -41.75 184.2
Q -33.25 185.9 -24.55 186.9 -6.8 189 10.05 187.8 27.25 186.7 44.1 182.2 60.5 177.85 76.5 170.2 80.15 168.45 84.2 166.3
L 100.6 156.6 106.4 152.65
Q 114.05 147.3 120.15 142.15 127 136.5 132.9 130.55 136.45 127 138.9 124.3 142.25 120.55 144.5 117.85 149.8 111.45 154.85 104.1 164.45 89.9 171.25 74 172.85 70.25 174.45 66
L 177.3 57.9
Q 178.85 53.25 179.8 49.6
L 182.7 38.15 185.3 24.3
Q 186.65 15.75 187.25 7.15 188.4 -10.5 186.45 -27 184.45 -43.9 179.2 -60.35 176.7 -68.05 173.15 -76.35 171.65 -80 169.6 -84.15 167.95 -87.75 165.75 -91.8 163.35 -96.2 161.5 -99.3
L 157.9 -105.25 157.55 -105.7 156.65 -107.15 156.55 -107.35 147.1 -120.75
Q 141.6 -127.9 136.1 -133.9 130.2 -140.35 124 -145.95 121.8 -147.7 119.1 -149.7
L 116 -151.95 115.65 -152.15 115.35 -152.4 105.05 -159 90.3 -166.8 81.95 -170.4
Q 76 -172.8 70.65 -174.5 67.45 -175.55 64.85 -176.3
L 56.15 -178.6 35.3 -182.4 47.75 -179.45
Q 49.9 -178.9 54.4 -177.6 58.75 -176.25 62.3 -175 67.6 -173.1 71.25 -171.6
L 83.75 -165.85
M 128.6 -151
Q 126.35 -152.85 123.55 -154.9
L 118.4 -158.65
Q 114.9 -161.05 113.1 -162.15
L 104.3 -167.5 90.9 -174.25
Q 88.7 -175.3 85.15 -176.75 79 -179.3 73.4 -181.15 71.45 -181.85 67.45 -183.05
L 58.4 -185.55 44.65 -188.4 44.3 -188.5 36.9 -189.65 38.85 -189.2 39.2 -189.15 49.75 -186.55
Q 51.6 -186.05 56.65 -184.55 61.45 -183 64.8 -181.8 70.35 -179.8 74.1 -178.2
L 79.75 -175.7 95.45 -167.55
Q 99.45 -165.15 101.2 -164.05
L 107.05 -160.15
Q 111.65 -156.85 113 -155.8 116.1 -153.5 118.95 -151.05
L 124.95 -145.9
Q 128.95 -142.2 130.9 -140.2 136.7 -134.5 142.6 -127.5 148.7 -120.2 153.75 -112.9
L 157.1 -107.95 157.2 -107.75 157.4 -107.5 158.4 -105.9 158.6 -105.65 164.1 -96.5
Q 169.3 -87.4 173.3 -78.45 177.55 -68.95 180.75 -58.75 184.15 -47.95 186 -37.5
L 188.25 -20.7 188.9 -3.35
Q 188.9 -0.5 188.75 2.5
L 188.4 8.4
Q 188.3 10.4 187.9 14.4
L 187.2 20.35
Q 186.85 23.35 186.3 26.4
L 183.4 41.15 177.25 62.6 174.2 70.75 164.25 91.75
Q 161.25 97.1 157.55 102.85 150.05 114.15 141.55 123.75 132.7 133.65 122.4 142.45
L 111.75 150.85
Q 105.25 155.6 100.45 158.65
L 91.65 164.1 76.4 172.15
Q 63.5 178.25 50.55 182.2 36.9 186.35 23.3 188.25 9.75 190.15 -4.7 190 -18.35 189.85 -32.9 187.6
L -46.05 185.15 -46.5 185.1 -60.65 181.5
Q -74.6 177.45 -87.25 171.7 -100.5 165.7 -112 158.15 -123.75 150.5 -134.3 141 -144.45 131.8 -153.65 120.75
L -154.2 120.05 -154.5 119.75 -163.2 108.3 -170.45 97.45 -183.15 73.95
Q -188.9 61.4 -192.7 48.5
L -194.3 42.8 -197.5 28.1 -199.35 14.5 -199.35 14.1 -200.05 4.2 -199.75 -16.95
Q -199.4 -22.75 -198.5 -29.8
L -194 -54 -190.8 -65.65 -190.65 -66 -190.45 -66.75 -184.2 -84.05 -179.25 -95.05 -170.7 -110.55 -157.45 -129.35
Q -153.55 -134.2 -150.2 -137.85 -142.85 -145.95 -134.7 -153.1 -127.05 -159.9 -118.4 -166.1
L -101.7 -177
Q -96.9 -179.8 -93.35 -181.7 -89.35 -183.85 -85 -185.9 -77 -189.7 -68.55 -192.85 -60.45 -195.85 -52.65 -197.95 -48.2 -199.15 -44.95 -199.85
L -24.2 -203.35
Q -28.2919921875 -202.920703125 -32.35 -202.3 -49.9 -199.65 -67.15 -193.45 -71.1 -192.05 -75.5 -190.2 -79.25 -188.7 -83.75 -186.6 -91.15 -183.2 -99.65 -178.35 -103.25 -176.3 -107.35 -173.7
L -114.85 -168.8
Q -122.15 -163.75 -129.2 -158.05 -136.45 -152.05 -142.55 -146.1 -144.7 -144.05 -148.8 -139.75
L -154.75 -133.05
Q -166.15 -119.55 -175.1 -103.75 -179.4 -96.05 -183.05 -87.75 -186.65 -79.55 -189.5 -71.1 -192.3 -62.85 -194.5 -53.95
L -196.45 -45.25
Q -197.35 -41 -198.1 -36.45 -199.45 -28 -200.25 -18.75 -200.6 -14.8 -200.75 -9.85 -200.9 -4.9 -200.85 -0.95 -200.75 7.9 -199.8 16.75 -198.9 25.55 -197.1 34.35 -195.4 42.6 -192.7 51.55 -190.15 59.75 -186.65 68.25 -183.5 75.95 -179.1 84.35 -177.5 87.5 -174.85 92.15
L -165.35 107.2
Q -162.4 111.45 -160.15 114.45 -155.05 121.25 -148.9 128.2 -136.8 141.7 -122.9 152.25 -109.05 162.85 -92.8 170.9
L -84.8 174.65
Q -79.85 176.75 -76.6 178 -72.65 179.5 -68.25 181
L -59.75 183.65
Q -54.75 185.1 -51.2 185.95
L -42.5 187.9
Q -32.8 189.85 -25 190.75 -16.25 191.8 -7.35 192.1 1.2 192.4 10.3 191.85 28 190.8 45.2 186.35 62.3 181.85 78.4 174.25 82.95 172.1 86.3 170.3
L 103.3 160.35 109.05 156.5
Q 116.65 151.25 123.2 145.85 130 140.25 136.35 134.05 149.25 121.3 159.05 107 169 92.6 176.15 76.1 178.45 70.7 179.5 67.95 181.2 63.55 182.45 59.6 183.25 57.25 185.1 51.15
L 188.65 36.9 188.75 36.6 190.9 25.2
Q 192.35 16.4 193 7.6 194.3 -10.45 192.4 -27.65 190.35 -45.35 185.05 -62.2 182.55 -70.25 178.95 -78.8 177.25 -82.9 175.35 -86.9 173.85 -90.1 171.4 -94.8 169.55 -98.3 167.05 -102.55
L 161.85 -111.1 152.35 -124.75
Q 146.8 -132 141.05 -138.4 135.15 -145 128.6 -151
M 123.4 -156.3
L 129.55 -150.9
Q 130.95 -149.6 135.7 -145 141.6 -139.1 147.7 -131.75 153.5 -124.8 159.15 -116.6
L 162.7 -111.25 162.9 -111 169.7 -99.65
Q 174.7 -90.95 179.1 -80.95 183.45 -71 186.65 -60.55 190.05 -49.55 191.95 -38.55
L 193.6 -27.05
Q 193.65 -26.7 194.2 -21.15
L 194.75 -9.3 194.55 2.75 193.05 19.6 188.15 45.15 180.65 69 174.85 82.55
Q 173.15 86.15 171.9 88.45
L 168.8 94.3
Q 165.2 100.6 161.8 105.7 154.25 117.1 145.25 127.1 136.1 137.25 125.45 146.15 123.85 147.55 120.05 150.5
L 114.5 154.7
Q 108.65 159 102.95 162.6
L 92.4 168.95 78.3 176.2
Q 65.45 182.2 51.75 186.35 38.15 190.4 23.85 192.35 9.45 194.25 -4.8 193.95 -18.9 193.75 -33.5 191.35
L -38.85 190.45 -61.7 184.95
Q -75.5 180.95 -88.7 174.85 -101.55 169 -113.85 160.9 -125.55 153.15 -136.4 143.3 -146.85 133.7 -155.95 122.6
L -156.5 121.9 -156.8 121.6 -164.05 112.1 -175.95 93.6
Q -177.15 91.6 -179.35 87.5
L -185.5 75
Q -191.3 62.35 -195.05 49.15
L -196.65 43.4 -199.8 28.45 -201.55 15.1 -201.55 14.7 -202.25 4.3 -201.85 -17.1
Q -201.3 -24.15 -200.45 -30.05
L -199.5 -36.45
Q -198.75 -40.85 -198.35 -42.75
L -192.6 -65.8 -192.45 -66.15 -191.65 -68.8 -183.25 -90.3 -175 -106.25
Q -173.3 -109.25 -171.95 -111.35
L -158.5 -130.2
Q -154.65 -134.85 -151.15 -138.7 -143.55 -146.95 -135.45 -153.95 -127.2 -161.15 -118.95 -166.95 -114.5 -170.1 -110.55 -172.6
L -102.15 -177.8
Q -97.8 -180.35 -93.7 -182.45 -91.45 -183.65 -85.35 -186.65 -76.65 -190.7 -68.8 -193.5 -60.9 -196.4 -52.8 -198.5 -48.6 -199.6 -45.1 -200.4
L -25.1 -203.65 -18.35 -204.25
Q -18.1 -204.3 -17.55 -204.3 -17.25 -204.35 -16.7 -204.35 -15.7 -204.45 -15.1 -204.45
L -13.5 -204.55
Q -13.0265625 -204.55 -12.75 -204.6 -22.6091796875 -204.20703125 -32.45 -202.75 -50.4 -200.1 -67.35 -194.1 -71.85 -192.5 -75.8 -190.9 -81.3 -188.6 -84.05 -187.3 -92 -183.65 -100.1 -179.1 -103.85 -177 -107.85 -174.5 -112.3 -171.7 -115.4 -169.6 -122.75 -164.6 -129.85 -158.9 -136.45 -153.65 -143.4 -147 -146.3 -144.2 -149.7 -140.6
L -155.75 -133.9
Q -167.5 -120.2 -176.4 -104.5 -180.9 -96.55 -184.5 -88.4 -188.35 -79.85 -191.15 -71.65 -194.05 -63.15 -196.25 -54.4
L -197.45 -49.5 -197.5 -49.2 -197.6 -48.95 -198.3 -45.65
Q -199.15 -41.7 -200 -36.8 -201.6 -27.3 -202.3 -18.95 -202.7 -13.95 -202.85 -9.95 -203.05 -5.45 -203 -0.95 -203 8 -202.1 17 -201.2 26 -199.4 34.8 -197.7 43.6 -195.05 52.25 -192.45 60.75 -189.05 69.25 -185.5 77.85 -181.5 85.6 -180.15 88.25 -177.25 93.55 -174.8 97.75 -172.6 101.3
L -167.7 108.85
Q -164.3 113.75 -162.5 116.2 -157 123.55 -151.15 130.2 -139.05 143.8 -124.85 154.8 -110.45 165.95 -94.35 173.95
L -86.2 177.85
Q -82.3 179.55 -77.85 181.3 -73.1 183.15 -69.4 184.4
L -60.8 187.15
Q -55.95 188.55 -52.1 189.5
L -43.3 191.55
Q -34.5 193.4 -25.5 194.55 -15.7 195.8 -7.5 196.05 1.55 196.45 10.55 195.9 28.7 194.9 46.25 190.5 63.75 186 80.3 178.3 83.5 176.85 88.4 174.35
L 98.35 168.85 111.7 160.4
Q 119.2 155.3 126.25 149.6 133.3 143.8 139.8 137.55 152.8 124.9 163.3 109.9 168.4 102.6 172.9 94.5 177.6 86 181.05 78.25 183.35 73 184.5 69.85 186.15 65.65 187.65 61.3 189 57.2 190.35 52.65
L 194.05 38.35 194.15 38.05 196.45 26.1
Q 198.1 16.25 198.7 8 200.25 -10.4 198.3 -28.35 196.45 -46.3 190.95 -64.1 188.1 -73.2 184.75 -81.25 183.6 -84.1 181.1 -89.6 179.35 -93.3 177.05 -97.8
L 167.65 -114.15 167.45 -114.4 157.6 -128.75
Q 151.9 -136.35 146.05 -142.9 139.9 -149.8 133.2 -156.05
L 124.05 -163.1 113.05 -170.4 99.45 -178 88.35 -183.15
Q 82.35 -185.7 76.2 -187.8
L 54.4 -193.95 49.65 -194.95
Q 48.25 -195.25 48.05 -195.25
L 38.55 -196.9 51.75 -193.6
Q 53.4 -193.2 58.85 -191.5 63.35 -190.1 67.3 -188.6 72.6 -186.65 76.95 -184.8
L 93.95 -176.55 99.05 -173.6
Q 101.85 -171.95 105 -169.9
L 111.05 -165.8
Q 113.1 -164.4 117.2 -161.3 121.2 -158.2 123.4 -156.3
M 47.05 -210.15
L 47.3 -210.05 55.75 -207.75
Q 60.3 -206.45 63.3 -205.4 67.5 -204.05 72.3 -202.25 77.4 -200.3 82.6 -198.05
L 106.25 -185.7
Q 109.75 -183.6 112.6 -181.65
L 119.1 -177.15
Q 121.45 -175.5 125.65 -172.25 129.3 -169.35 132.25 -166.8
L 138.8 -160.9
Q 141 -158.85 145.35 -154.5 152.2 -147.4 158 -140.2 164.3 -132.35 169.95 -124
L 176.25 -114.1 176.4 -113.8 180.95 -105.95
Q 186.6 -95.6 190.65 -86 195.2 -75.15 198.5 -64.15 202.05 -51.95 203.85 -40.6
L 204.75 -34.5
Q 205.2 -31.4 205.5 -28.3
L 206 -22.1 206.4 -3.05
Q 206.2 1.2 206.1 3.35
L 205.6 9.8
Q 205.45 11.95 204.95 16.25
L 201.75 35.7 198.65 48.7
Q 198.1 50.85 196.8 55.15
L 187.35 80.8 184.4 87.1
Q 183 90.05 181.25 93.3
L 180.25 95.25 180 95.6 177.85 99.45
Q 174.25 105.7 170.35 111.4 162.2 123.4 152.65 133.75 143.15 144.05 131.65 153.55
L 120.1 162.35
Q 112.7 167.55 107.95 170.45
L 92 179.5
Q 90.95 180.1 88.75 181.2
L 82.05 184.35
Q 68.05 190.7 54.2 194.6 39.75 198.75 24.9 200.55 10 202.45 -4.95 201.9 -19.65 201.45 -34.75 198.85
L -39.35 198.05 -63.8 191.95
Q -78.35 187.45 -91.65 181.15 -105.55 174.5 -117.5 166.35 -129.7 158.1 -140.65 147.9 -151.4 137.75 -160.55 126.35
L -170.5 112.85 -184.95 88.45 -190.3 77.15
Q -196.1 63.85 -199.8 50.5
L -204.35 29.65 -206.2 12.95 -206.5 -9.05 -205.95 -17.4
Q -205.3 -24.5 -204.4 -30.6
L -201.8 -45.1 -195.85 -67.25 -191.15 -80.2
Q -190.7 -81.35 -188.75 -86
L -183.5 -97.15 -177.6 -107.8 -172.4 -116.05 -164.2 -127.35
Q -163.6 -128.1 -163.3 -128.5
L -160.6 -131.85
Q -156.65 -136.6 -153 -140.45
L -146.1 -147.4
Q -145.8 -147.75 -145.1 -148.35 -141.5 -151.8 -136.95 -155.7 -129.5 -162.05 -120.15 -168.6
L -103.05 -179.35
Q -98.3 -182 -94.5 -183.95 -89.2 -186.65 -86 -188.05 -78.3 -191.6 -69.25 -194.8 -61.35 -197.55 -53.1 -199.65
L -35 -203.3
Q -51.6388671875 -200.845703125 -67.8 -195.35 -71.6 -194.1 -76.35 -192.25 -81.15 -190.35 -84.7 -188.75 -92.9 -185.15 -100.95 -180.65
L -112.2 -174.05 -112.45 -173.85 -116.5 -171.25
Q -124.4 -166 -131.25 -160.6 -138.85 -154.6 -145.05 -148.75 -148.9 -145.05 -151.55 -142.3
L -157.75 -135.6
Q -169.9 -121.7 -179.05 -106 -183.95 -97.5 -187.5 -89.75 -191.3 -81.4 -194.4 -72.8 -197.35 -64.55 -199.85 -55.3
L -201.1 -50.3 -201.2 -50.05 -202 -46.4
Q -202.9 -42.5 -203.85 -37.45 -205.5 -28.55 -206.4 -19.3 -206.8 -15.3 -207.05 -10.1 -207.25 -5.5 -207.35 -0.9 -207.35 9.05 -206.6 17.45 -205.75 26.65 -204.05 35.7 -202.5 44.4 -199.8 53.7 -196.95 63.35 -193.8 71.2 -190.45 79.7 -186.3 88.05 -183.5 93.55 -182 96.25
L -172.4 112.05
Q -169.6 116.2 -167.15 119.65 -161.3 127.65 -155.65 134.15 -143.4 148.4 -128.8 159.9 -114.1 171.5 -97.4 180.1
L -89 184.2
Q -84.15 186.4 -80.4 187.9 -76.8 189.35 -71.7 191.2
L -44.8 198.9
Q -35.75 200.9 -26.4 202.2 -17.2 203.45 -7.75 204 1.35 204.45 11 204.05 21.05 203.55 29.8 202.3 38.95 201.05 48.4 198.75 58.05 196.35 66.55 193.45 75.25 190.45 84.1 186.45 88.8 184.35 92.65 182.35
L 106.1 175 117.05 168.15
Q 125.1 162.75 132.35 157 139.45 151.4 146.7 144.55 160.45 131.45 171.75 115.7 177.35 107.85 182.05 99.55 186.7 91.55 190.8 82.5 192.55 78.75 194.6 73.7 196.15 69.85 197.95 64.75 199.35 60.75 200.95 55.7
L 203.85 45.35 207.65 27.9
Q 209.3 18.5 210.2 8.9 211.1 -0.7 211.1 -10.35 211.1 -20 210.2 -29.7 208.3 -49.15 202.75 -67.8 200.1 -76.85 196.35 -86.15 194.95 -89.7 192.55 -95.1 190.05 -100.5 188.3 -103.8 185.95 -108.5 183.75 -112.35
L 177 -123.7 168.15 -136.7
Q 162.25 -144.75 156 -151.95 149.8 -159 142.4 -166.1 138.8 -169.1 136.9 -170.55
L 131.25 -174.85
Q 126.3 -178.35 125.5 -178.9
L 115.8 -185.05 101.05 -192.95
Q 98.55 -194.2 94.7 -195.9 89.2 -198.35 81.75 -201.1 78.45 -202.3 75.15 -203.35
L 65.2 -206.35 50.15 -209.9 49.7 -209.95 41.75 -211.4 46.75 -210.2 47.05 -210.15
M 43.4 -203.6
L 43 -203.7 40.15 -204.15 42.45 -203.6 42.8 -203.55 53.75 -200.7
Q 59.05 -199.15 61.1 -198.45 65.15 -197.15 69.8 -195.45 75.55 -193.25 79.75 -191.4
L 92.2 -185.5 102.65 -179.65
Q 106.05 -177.6 108.8 -175.8
L 115.1 -171.5
Q 117.4 -169.85 121.45 -166.75 124.85 -164.1 127.8 -161.55
L 140.5 -149.75
Q 147.45 -142.65 152.85 -135.95 158.95 -128.45 164.55 -120.3
L 175.35 -102.8
Q 180.7 -93.15 184.85 -83.45 189.25 -73.2 192.6 -62.35 196.1 -50.35 197.9 -39.55
L 200.1 -21.65 200.6 -9.35 200.3 3.05 198.9 18.8 195.6 37.8 189.35 60.75 183.15 77.15 173.3 96.85
Q 169.95 102.85 166.1 108.55 158.25 120.25 148.95 130.4 139.4 140.85 128.55 149.85 127.55 150.7 123 154.25
L 117.3 158.55
Q 110.75 163.25 105.45 166.5
L 104.35 167.25 80.2 180.3
Q 66.5 186.55 53 190.45 39.05 194.55 24.35 196.45 9.85 198.35 -4.9 197.95 -19.6 197.6 -34.15 195.1
L -40.45 193.95 -62.75 188.45
Q -77.35 184 -90.15 178 -103.75 171.65 -115.65 163.6 -127.7 155.6 -138.5 145.6 -148.95 135.95 -158.25 124.5
L -159.1 123.45 -159.35 123.05 -167.9 111.55 -178.35 95 -187.9 76.1
Q -193.65 63.05 -197.45 49.85
L -199.95 39.8
Q -200.45 37.55 -200.7 36.45
L -202 29.25 -202.1 28.85 -203.8 15.3 -204.4 5.2 -203.9 -16.85 -203.9 -17.25
Q -203.4 -23.35 -202.45 -30.35
L -199.25 -47.9 -194.05 -67.1 -191.75 -73.75
Q -190.5 -77.3 -189.6 -79.6
L -187.25 -85.35
Q -185.25 -89.8 -184.7 -90.95
L -176.3 -107.05 -169.15 -118.3 -159.55 -131.05
Q -155.1 -136.3 -152.1 -139.55
L -144.3 -147.5
Q -140.3 -151.3 -136.2 -154.85 -128 -161.9 -119.55 -167.75 -115.8 -170.45 -111.1 -173.45
L -102.6 -178.55
Q -97.95 -181.25 -94.1 -183.2 -89.3 -185.7 -85.65 -187.35 -77.55 -191.1 -69.05 -194.15 -60.75 -197.1 -52.95 -199.1
L -29.5 -203.6
Q -31.001953125 -203.4115234375 -32.5 -203.2 -49.95 -200.8 -67.6 -194.75 -71.65 -193.35 -76.05 -191.6 -81.65 -189.3 -84.4 -188.05 -93.1 -184.05 -100.5 -179.9 -105.2 -177.25 -108.35 -175.3 -111.55 -173.35 -115.95 -170.45 -124 -164.95 -130.55 -159.75 -137.8 -154 -144.2 -147.85 -147.3 -144.95 -150.65 -141.45
L -156.75 -134.75
Q -168.5 -121.2 -177.75 -105.25 -182.2 -97.45 -186 -89.1 -189.8 -80.7 -192.75 -72.25 -198.75 -55.1 -201.9 -37.1 -203.6 -27.6 -204.35 -19.1 -204.7 -14.65 -204.95 -10.05 -205.15 -6 -205.15 -0.95 -205.2 7.6 -204.35 17.2 -203.4 26.65 -201.75 35.25 -200.05 44.2 -197.4 53 -194.9 61.55 -191.45 70.2 -187.9 78.95 -183.9 86.85 -181.95 90.75 -179.6 94.9
L -173.5 105.15 -173.35 105.45 -170.05 110.45
Q -167.25 114.55 -164.8 117.9 -159.15 125.55 -153.4 132.2 -141.15 146.1 -126.8 157.35 -112.5 168.6 -95.9 177.05
L -87.6 181
Q -83.15 183 -79.15 184.6 -75.15 186.2 -70.55 187.8
L -61.8 190.65
Q -56.3 192.25 -52.95 193.1
L -44.05 195.2
Q -34.4 197.3 -25.95 198.4 -16.5 199.65 -7.6 200 1.55 200.45 10.8 200 20 199.55 29.15 198.2 38.5 196.8 47.3 194.6 64.9 190.25 82.2 182.4 86.7 180.3 90.55 178.35
L 98.65 173.95 99.2 173.7 108.05 168.35 108.35 168.2 114.4 164.25
Q 122.35 158.85 129.3 153.3 137.3 146.8 143.25 141.05 156.9 127.95 167.5 112.8 172.65 105.55 177.5 97.05 182.35 88.4 185.95 80.4 187.55 76.7 189.55 71.8 191.35 67.3 192.8 63.05 194.35 58.45 195.65 54.15
L 199.5 39.55 199.6 39.25 202.05 27
Q 203.75 16.95 204.45 8.45 206.1 -10.35 204.25 -29 202.4 -47.7 196.85 -65.95 194.3 -74.45 190.55 -83.7 188.65 -88.3 186.8 -92.35 185.15 -96 182.65 -100.8 180.85 -104.4 178.2 -109.1
L 173.1 -117.6 162.85 -132.75
Q 157.3 -140.3 151 -147.45 144.65 -154.65 137.8 -161.05
L 130.45 -166.9 118.5 -175.2 97.7 -186.7
Q 95.3 -187.85 91.5 -189.5 85.45 -192.15 78.95 -194.45
L 69.4 -197.6 43.4 -203.6
M -10.4 -205
L -11 -205
Q -10.301953125 -204.9916015625 -9.65 -205 -10.0080078125 -205.0099609375 -10.4 -205
M -13.25 -204.9
L -12.75 -204.9
Q -12.644140625 -204.917578125 -12.55 -204.95 -12.8892578125 -204.9130859375 -13.25 -204.9
M 5.5 -204.25
Q 3.384765625 -204.344921875 1.25 -204.4 0.6216796875 -204.4103515625 0 -204.4 1.7228515625 -204.3666015625 3.45 -204.3 4.4697265625 -204.2650390625 5.5 -204.25 Z"/>
</g>

<g id="logo_0_Layer1_0_FILL">
<path fill="#000000" stroke="none" d="
M 23.2 -200.5
Q 22.8 -200.6 22.4 -200.6
L 22.35 -200.65
Q 22.05 -201.2 21.4 -201.8
L 20.15 -202.9
Q 17.35 -205.15 11.7 -207.1
L 7.25 -208.4 -3.35 -210.35 -9.75 -210.9 -17.8 -210.85
Q -21.85 -210.65 -26.2 -210.05 -29.7 -209.6 -33.9 -208.6 -41.35 -206.65 -46.55 -203.85 -51.75 -201.1 -54.25 -197.85 -55.5 -196.35 -55.85 -194.85 -56 -194.5 -56.05 -194.1 -56.3 -194.05 -56.5 -193.95 -65.1 -191.65 -73.6 -188.35 -82.1 -185.1 -91.3 -180.5
L -91.35 -180.5
Q -100.25 -175.95 -108.2 -170.85 -110.45 -169.4 -112.75 -167.75
L -112.7 -167.75
Q -112.85 -167.7 -112.9 -167.6 -113.75 -168.4 -114.85 -168.95 -115.9 -169.45 -117.1 -169.85 -118.65 -170.3 -119.7 -170.4
L -122.65 -170.6 -125.95 -170.4
Q -128.4 -170.1 -129.5 -169.85
L -133.35 -168.85
Q -137.55 -167.65 -141.7 -165.75 -145.85 -163.9 -150.5 -161.05 -154.95 -158.3 -159.4 -154.75
L -164.75 -150.15 -164.9 -150.05 -165 -149.95 -165.15 -149.85 -165.15 -149.8 -167.95 -146.95
Q -172.25 -142.55 -175.45 -138 -178.6 -133.85 -181.3 -128.8 -183.75 -124.25 -185.4 -119.65 -187 -115.1 -187.6 -111.05
L -188 -107
Q -188.1 -105.3 -188 -103.3
L -187.55 -99.85
Q -187.3 -98.35 -186.7 -96.8
L -185.55 -94.05
Q -184.75 -92.75 -183.95 -91.75 -182.85 -90.45 -181.5 -89.5 -181.55 -89.4 -181.6 -89.3 -182.85 -86.9 -184 -84.45
L -184.05 -84.45
Q -188.15 -75.65 -191.3 -66.4
L -191.3 -66.45
Q -193.3 -60.9 -194.95 -54.7
L -194.95 -54.75
Q -195 -54.7 -195 -54.6 -195.75 -54.75 -196.45 -54.8 -198.4 -54.95 -200.1 -54.75 -202.2 -54.45 -203.7 -53.95 -205.7 -53.35 -207.4 -52.55
L -211.1 -50.4
Q -213.5 -48.75 -214.8 -47.6
L -216.1 -46.35
Q -216.4 -46.05 -216.6 -45.95
L -218.35 -44.1
Q -219 -43.45 -220.15 -42.1
L -221.9 -40
Q -225.35 -35.45 -228.25 -29.85 -231.25 -24 -233.35 -17.6 -235.5 -11.1 -236.75 -3.6
L -238 11.45 -238.05 11.45 -237.75 19.35
Q -237.75 19.4 -237.4 23.15
L -236.9 26.8
Q -235.7 34.15 -233.45 40.7 -231.3 46.95 -227.95 52.8 -224.65 58.45 -220.9 62.5
L -219 64.5 -212.8 69.5
Q -210.9 70.75 -208.5 71.9
L -207.45 72.4 -204.2 73.55
Q -201.9 74.25 -199.85 74.5 -197.5 74.8 -195.45 74.7 -193.3 74.6 -191.25 74.2 -190.1 73.95 -189.05 73.65
L -189 73.7
Q -186.9 79.3 -184.2 85.05
L -184.2 85
Q -180.35 93.65 -175.25 102.25
L -175.3 102.2
Q -173.9 104.6 -172.4 106.95
L -172.35 107
Q -174.5 108.55 -176.25 110.55 -177.25 111.7 -178.4 113.55
L -180.2 116.95
Q -181.2 119.4 -181.55 120.75 -181.9 121.75 -182.05 122.7
L -182.3 123.75 -182.85 128.05 -182.8 133.85
Q -182.55 138.55 -181.2 143.8 -179.7 149.3 -177.45 154.1 -175.15 159.2 -171.6 164.35
L -165.1 172.45 -164.95 172.55 -164.9 172.65 -161.05 176.5 -160.8 176.7 -160.6 176.95 -160.5 176.95 -160.4 177.1 -154.45 181.85
Q -149.85 185.2 -144.45 187.75 -139.3 190.05 -134.2 191.35 -129.25 192.5 -124.3 192.55
L -119.55 192.35
Q -117.55 192.1 -115.05 191.6
L -110.9 190.3 -107.05 188.45
Q -105.65 187.7 -103.6 186.2 -102 184.95 -100.45 183.45 -98.35 181.3 -96.6 178.55
L -96.55 178.6 -96.5 178.6
Q -94.1 179.85 -91.7 181.15 -83.7 185.3 -74.05 189.2 -65.1 192.75 -55.65 195.4 -46.85 197.8 -38.1 199.45
L -38 199.45
Q -38.25 201.85 -38.1 204.2 -37.9 205.95 -37.65 207.5 -37.25 209.15 -36.75 210.8 -36.2 212.35 -35.45 214 -34.75 215.35 -33.7 217.15
L -32.65 218.65
Q -32.25 219.35 -31.55 220.15
L -29 222.9
Q -28.6 223.4 -27.65 224.25
L -22.85 227.95 -19.25 230.1
Q -17.55 231 -15.35 231.9 -11.05 233.65 -6.9 234.5 -2.45 235.4 2.4 235.6
L 8.25 235.35 8.25 235.3 8.4 235.3 10.4 235.05 10.6 235 10.8 235
Q 10.9 235 11.05 234.95
L 11.05 234.9 13.8 234.4
Q 14.95 234.2 15.95 233.85
L 20.05 232.5
Q 21.6 231.9 23.9 230.75
L 25.75 229.75 30.65 226.3 34.75 222.25 35.95 220.75
Q 37.2 219.05 38 217.65 38.9 216.2 39.65 214.4 40.05 213.5 40.3 212.65
L 40.9 210.9
Q 41.35 209.35 41.65 207.45 41.95 205.8 42 203.8 42.1 201.1 41.75 198.5
L 41.85 198.5
Q 50.3 196.8 59.3 194.2 68.55 191.55 77.6 187.75 86.55 184.1 95.2 179.5 104.15 174.65 111.8 169.4 116.3 166.4 120.85 162.85
L 120.9 162.8
Q 123.95 166.3 127.85 168.3 128.8 168.9 130.25 169.45 131.65 170.05 132.85 170.35
L 134.8 170.85 138.25 171.25
Q 144.05 171.6 149.6 169.55 155.55 167.3 159.95 163.1 160.95 162.1 162.1 160.8
L 162.65 160.2 165.9 155.2 166.85 152.7 166.9 152.6 167 152.5 167 152.45 167.7 150.45
Q 168.05 149.05 168.3 147.65
L 168.7 142.8 168.65 142.1
Q 168.6 141.15 168.3 139.35
L 167.75 136.6
Q 167.45 135.45 166.85 134
L 165.7 131.5
Q 165.1 130.4 164.3 129.1
L 162.55 126.85
Q 161.25 125.35 160 124.15 160 124.1 160.05 124.1
L 160.05 124.05
Q 163.45 119.7 166.65 115.2 171.9 107.7 177.05 98.85 181.95 90.3 185.8 81.5 189.9 72.05 192.75 63.35 195.6 54.6 197.75 44.6 199.85 34.75 200.85 25.5 201.1 23.3 201.3 21.15 201.3 21.1 201.3 21.05 203.75 21 206 20.4 209.2 19.45 211.75 17.45 212.85 16.6 214 15.25 214.35 14.85 215 13.95
L 215.8 12.6
Q 216.05 12.2 216.45 11.2
L 217.35 8.05 217.4 4.75 217.2 3.15 216.2 0.15 214.55 -2.55 212.4 -4.9
Q 211.1 -5.95 209.7 -6.7 208.2 -7.55 206.7 -7.95 203.55 -9 199.85 -8.85 196.25 -8.75 193 -7.45 191.5 -6.75 190.05 -5.95 189 -5.3 187.55 -4.1
L 186.65 -3.35 184.6 -0.85 183.3 1.65
Q 183.15 2.1 182.9 2.95
L 182.55 5.75 182.65 7.15
Q 182.7 7.9 182.85 8.55
L 183.85 11.15
Q 184.05 11.7 184.5 12.4
L 185.3 13.6
Q 186.25 14.8 187.3 15.75 189.8 18 192.6 19.25 194.9 20.25 197.15 20.7 197.2 20.75 197.2 20.8 197 22.9 196.7 24.95
L 196.75 25
Q 195.7 34.15 193.7 43.75 191.55 53.45 188.8 62.05 186.05 70.6 182 79.85 178.25 88.35 173.45 96.75 168.4 105.5 163.3 112.8 160.1 117.25 156.75 121.5 156.7 121.5 156.7 121.55 155.15 120.55 153.45 119.65 152.35 119 150.9 118.4 149.6 117.9 148.3 117.5 147.35 117.15 145.65 116.75 144.35 116.4 143.05 116.3
L 141.7 116.1 137.85 115.9 132.9 116.45 128.8 117.65 128.85 117.6 128.8 117.6 128.7 117.65 128.55 117.7 126.4 118.8 126.35 118.85 124.5 119.85 122.1 121.65
Q 121.45 122.2 120.3 123.35 117.1 126.85 115.3 131.55 113.6 136 113.45 141.25 113.35 142.15 113.45 143.85
L 113.65 146.35
Q 113.8 147.65 114.1 148.95
L 114.7 151.55
Q 116.1 155.95 118.4 159.55
L 118.35 159.6 118.3 159.6
Q 113.85 163 109.5 165.95 101.95 171.05 93.2 175.85 84.75 180.35 76.05 183.9 67.15 187.6 58.15 190.2 49.3 192.75 41 194.45
L 40.95 194.45
Q 40.3 191.9 39.2 189.35 38.1 186.95 37.6 186.1 37.05 185.1 35.75 183.05
L 33.7 180.25
Q 32.85 179.15 31.4 177.65 30.1 176.15 29.05 175.25
L 22.25 170.3 17.8 168.15
Q 15.75 167.35 14.65 167.05
L 12.3 166.35 7.8 165.6 7.8 165.55 5.3 165.45 5.1 165.4 1.35 165.4
Q -2.35 165.7 -5.4 166.45 -8.75 167.2 -11.8 168.45 -13.05 168.9 -14.85 169.85
L -16.3 170.6
Q -17.05 170.95 -17.75 171.45
L -21.95 174.2 -28.3 179.75
Q -29.55 181.05 -30.5 182.25 -31.65 183.7 -32.5 184.95 -33.3 186.1 -34.25 187.8 -35.15 189.35 -35.7 190.8 -36.7 192.95 -37.25 195.35
L -37.3 195.35
Q -45.95 193.75 -54.55 191.4 -63.8 188.75 -72.5 185.3
L -72.45 185.35
Q -81.95 181.5 -89.75 177.45
L -89.75 177.5
Q -92.2 176.2 -94.5 174.95
L -94.55 174.9
Q -93.25 172.1 -92.35 169 -91.85 167 -91.5 165 -91.2 163.2 -91.05 161.05
L -91.25 152.95
Q -91.5 151.05 -91.9 148.95
L -92.85 145.1
Q -93.8 141.6 -95.65 137.55 -97.25 133.95 -99.6 130.45 -101.85 127.05 -104.75 123.9
L -108.85 119.75 -116.35 113.8 -118.15 112.65
Q -121.9 110.25 -125.7 108.45 -129.3 106.65 -133.4 105.2 -137.4 103.75 -141.25 102.9
L -143.25 102.5
Q -144.25 102.25 -145.15 102.15
L -149.1 101.6 -149.6 101.6 -150.05 101.5 -152.95 101.4
Q -154.2 101.35 -156.7 101.5
L -160.4 101.95
Q -161.6 102.15 -164 102.75 -166.55 103.6 -168.85 104.8 -168.85 104.7 -168.9 104.7 -170.3 102.4 -171.65 100.15 -176.6 91.8 -180.4 83.3 -183.05 77.7 -185.1 72.2
L -185.15 72.15
Q -184.15 71.65 -183.15 71.1 -181.05 69.9 -179.55 68.8 -178.15 67.75 -176.3 65.95 -174.45 64.2 -173.35 62.8
L -170.8 59.3
Q -169.75 57.85 -168.5 55.55
L -167.45 53.6 -164.8 47.35
Q -163.2 42.7 -162.35 38.45 -161.4 34.1 -160.9 29 -160.55 24.05 -160.65 18.85
L -161.35 8.75 -161.45 8.4 -161.45 8.3 -161.5 8.25 -162.8 -0.5 -162.8 -0.8 -163.2 -2.8
Q -164.15 -7.35 -165.7 -13.05 -166.9 -17.35 -168.75 -22.65 -170.4 -27.2 -172.35 -31.5
L -176.45 -39.35
Q -177.5 -41.15 -178.75 -42.85
L -181.2 -46.05
Q -182.85 -47.95 -183.8 -48.8 -185.35 -50.2 -186.65 -51.1 -188 -52.1 -189.7 -52.95 -190.3 -53.25 -191 -53.5 -191 -53.6 -190.95 -53.6
L -190.95 -53.65
Q -189.35 -59.75 -187.4 -65.05 -184.25 -74.05 -180.25 -82.65 -179.15 -85.1 -177.9 -87.45 -177.85 -87.55 -177.8 -87.65 -176.3 -87.15 -174.65 -87 -173.25 -86.8 -171.9 -86.95
L -169 -87.35
Q -167.35 -87.7 -166.05 -88.15
L -163.15 -89.3
Q -161.7 -89.85 -160.2 -90.75
L -157.15 -92.5
Q -153.95 -94.6 -151.05 -96.9 -148.6 -98.95 -144.95 -102.35 -138.8 -108.4 -132.85 -115.95
L -130.8 -118.6 -130.7 -118.7 -128.2 -122.15 -128.05 -122.4 -127.85 -122.6 -127.15 -123.6
Q -124.7 -127 -122.15 -131.05 -120.2 -134.1 -117.8 -138.25 -115.6 -142.35 -114.25 -145.1
L -110.75 -154.35 -110.15 -157.05
Q -110 -157.9 -109.9 -159.65 -109.85 -161.05 -110.05 -162.05 -110.2 -163.25 -110.6 -164.2 -110.5 -164.25 -110.35 -164.3
L -110.35 -164.35
Q -108.15 -165.9 -105.95 -167.35 -98.15 -172.35 -89.45 -176.8 -80.45 -181.25 -72.1 -184.45 -63.8 -187.7 -55.4 -189.95
L -55.35 -189.95
Q -55.15 -190.05 -54.9 -190.05 -54.7 -189.85 -54.4 -189.55 -53.25 -188.5 -51.6 -187.7 -50.9 -187.4 -49.75 -187 -49 -186.75 -47.6 -186.45
L -46.45 -186.2 -41.3 -185.55 -30.5 -185.5
Q -27.05 -185.65 -23.4 -186 -18.4 -186.45 -15.85 -186.75
L -1.15 -188.95
Q 5.3 -190.05 11 -191.5
L 19.45 -194.6
Q 20.45 -195.15 20.8 -195.5 21.25 -195.75 21.95 -196.4 22 -196.45 22 -196.5 22.35 -196.45 22.65 -196.35
L 22.75 -196.35
Q 31.8 -195.4 40.2 -193.8 49.15 -192.1 58.6 -189.25 67.7 -186.45 76.4 -182.75
L 76.45 -182.75
Q 84.75 -179.3 93.55 -174.5 98.35 -171.85 102.95 -168.95
L 103 -168.95
Q 104 -168.3 105.05 -167.6
L 105.5 -167
Q 105.8 -166.65 106.45 -165.9 107.6 -164.7 108.8 -163.6 111.4 -161.15 115.3 -157.9 117.25 -156.3 123.4 -151.4
L 140.2 -138.85 141.45 -138.05
Q 143.1 -136.4 144.8 -134.65
L 144.8 -134.6
Q 148.4 -130.8 152.1 -126.5 158.5 -118.95 163.7 -111.55
L 163.7 -111.6
Q 169.35 -103.55 173.8 -95.45 178.55 -87.05 182.2 -78.45 186 -69.6 188.8 -60.65 191.55 -51.95 193.55 -42.3 194 -40.25 194.4 -38.15 194.95 -35.05 195.5 -31.85
L 195.65 -31.25 195.6 -31.4
Q 196 -28.8 196.45 -26.2 196.55 -24.85 196.8 -23.45
L 198.4 -23.7 199.8 -8.9 199.85 -8.85 199.65 -13.25
Q 199.4 -18.9 198.85 -23.8
L 200.95 -24.1
Q 200.7 -25.5 200.55 -26.75
L 200.55 -26.8 200.5 -26.8
Q 200.1 -29.5 199.65 -32.1
L 199.6 -32.55
Q 199.05 -35.7 198.5 -38.85 198.1 -41.05 197.65 -43.15 195.6 -53.05 192.75 -61.95
L 192.75 -61.9
Q 189.95 -70.95 186.05 -80.05 182.25 -88.85 177.4 -97.5 172.85 -105.7 167.1 -113.95 161.8 -121.5 155.2 -129.25 151.5 -133.6 147.8 -137.5
L 147.75 -137.5
Q 145.95 -139.4 144.25 -141.2
L 139.95 -147.05 136.8 -150.6
Q 133.1 -154.65 129 -158.15 124.65 -161.85 120.4 -164.75 116.15 -167.6 112.65 -169.2 110.85 -170.1 109.5 -170.55
L 107.2 -171.15
Q 106.15 -171.8 105.2 -172.5 100.5 -175.45 95.55 -178.15 86.5 -183.1 78 -186.6 69.1 -190.35 59.75 -193.2 50.15 -196.15 40.95 -197.9 32.4 -199.55 23.2 -200.5 Z"/>
</g>

<g id="logo_0_Layer0_0_FILL">
<path fill="#000000" stroke="none" d="
M -105.25 -106.65
Q -108.9 -110.3 -114.1 -110.3 -119.3 -110.3 -122.95 -106.65 -126.6 -103 -126.6 -97.8 -126.6 -92.6 -122.95 -88.95 -119.3 -85.3 -114.1 -85.3 -108.9 -85.3 -105.25 -88.95 -101.6 -92.6 -101.6 -97.8 -101.6 -103 -105.25 -106.65
M -96.6 89.7
Q -101.8 89.7 -105.45 93.35 -109.1 97 -109.1 102.2 -109.1 107.4 -105.45 111.05 -101.8 114.7 -96.6 114.7 -91.4 114.7 -87.75 111.05 -84.1 107.4 -84.1 102.2 -84.1 97 -87.75 93.35 -91.4 89.7 -96.6 89.7
M 90.5 -109.3
Q 90.5 -114.5 86.85 -118.15 83.2 -121.8 78 -121.8 72.8 -121.8 69.15 -118.15 65.5 -114.5 65.5 -109.3 65.5 -104.1 69.15 -100.45 72.8 -96.8 78 -96.8 83.2 -96.8 86.85 -100.45 90.5 -104.1 90.5 -109.3
M -19.2 39.7
Q -24.4 39.7 -28.05 43.35 -31.7 47 -31.7 52.2 -31.7 57.4 -28.05 61.05 -24.4 64.7 -19.2 64.7 -14 64.7 -10.35 61.05 -6.7 57.4 -6.7 52.2 -6.7 47 -10.35 43.35 -14 39.7 -19.2 39.7
M 30.8 -27.8
Q 25.6 -27.8 21.95 -24.15 18.3 -20.5 18.3 -15.3 18.3 -10.1 21.95 -6.45 25.6 -2.8 30.8 -2.8 36 -2.8 39.65 -6.45 43.3 -10.1 43.3 -15.3 43.3 -20.5 39.65 -24.15 36 -27.8 30.8 -27.8
M -56.6 -68.8
Q -61.8 -68.8 -65.45 -65.15 -69.1 -61.5 -69.1 -56.3 -69.1 -51.1 -65.45 -47.45 -61.8 -43.8 -56.6 -43.8 -51.4 -43.8 -47.75 -47.45 -44.1 -51.1 -44.1 -56.3 -44.1 -61.5 -47.75 -65.15 -51.4 -68.8 -56.6 -68.8
M 95.5 92.2
Q 95.5 87 91.85 83.35 88.2 79.7 83 79.7 77.8 79.7 74.15 83.35 70.5 87 70.5 92.2 70.5 97.4 74.15 101.05 77.8 104.7 83 104.7 88.2 104.7 91.85 101.05 95.5 97.4 95.5 92.2
M 108 -64.05
Q 104.35 -64.05 101.8 -61.5 99.25 -58.95 99.25 -55.3 99.25 -51.65 101.8 -49.1 104.35 -46.55 108 -46.55 111.65 -46.55 114.2 -49.1 116.75 -51.65 116.75 -55.3 116.75 -58.95 114.2 -61.5 111.65 -64.05 108 -64.05
M -108.6 -8.5
Q -113 -12.9 -119.2 -12.9 -125.4 -12.9 -129.8 -8.5 -134.2 -4.1 -134.2 2.1 -134.2 8.3 -129.8 12.7 -125.4 17.1 -119.2 17.1 -113 17.1 -108.6 12.7 -104.2 8.3 -104.2 2.1 -104.2 -4.1 -108.6 -8.5
M 148.35 -15.65
Q 141.05 -22.95 130.7 -22.95 120.35 -22.95 113 -15.65 105.7 -8.3 105.7 2.05 105.7 12.4 113 19.7 120.35 27.05 130.7 27.05 141.05 27.05 148.35 19.7 155.7 12.4 155.7 2.05 155.7 -8.3 148.35 -15.65
M 15.65 127.15
Q 15.65 123 12.7 120.1 9.8 117.15 5.65 117.15 1.5 117.15 -1.4 120.1 -4.35 123 -4.35 127.15 -4.35 131.3 -1.4 134.2 1.5 137.15 5.65 137.15 9.8 137.15 12.7 134.2 15.65 131.3 15.65 127.15
M 25.75 -122.8
Q 25.75 -131.1 19.9 -136.95 14.05 -142.8 5.75 -142.8 -2.55 -142.8 -8.4 -136.95 -14.25 -131.1 -14.25 -122.8 -14.25 -114.5 -8.4 -108.65 -2.55 -102.8 5.75 -102.8 14.05 -102.8 19.9 -108.65 25.75 -114.5 25.75 -122.8 Z"/>
</g>

<g id="logo_copy_0_Layer0_0_FILL">
<path fill="#000000" stroke="none" d="
M -76.8 82.45
L -76.85 82.45 -76.85 82.4
Q -83.7 75.55 -93.45 75.55 -103.2 75.55 -110.05 82.4
L -110.05 82.45 -110.1 82.45
Q -116.95 89.3 -116.95 99.05 -116.95 108.8 -110.1 115.65
L -110.05 115.65 -110.05 115.7
Q -103.2 122.55 -93.45 122.55 -83.7 122.55 -76.85 115.7
L -76.8 115.65
Q -69.95 108.8 -69.95 99.05 -69.95 89.3 -76.8 82.45
M -29.95 -59.45
Q -29.95 -69.2 -36.8 -76.05
L -36.85 -76.05 -36.85 -76.1
Q -43.7 -82.95 -53.45 -82.95 -63.2 -82.95 -70.05 -76.1
L -70.05 -76.05 -70.1 -76.05
Q -76.95 -69.2 -76.95 -59.45 -76.95 -49.7 -70.1 -42.85
L -70.05 -42.85 -70.05 -42.8
Q -63.2 -35.95 -53.45 -35.95 -43.7 -35.95 -36.85 -42.8
L -36.8 -42.85
Q -29.95 -49.7 -29.95 -59.45
M -134.4 -19.45
L -134.4 -19.4 -134.45 -19.4
Q -142.05 -11.8 -142.05 -1.05 -142.05 9.7 -134.45 17.3
L -134.4 17.3 -134.4 17.35
Q -126.8 24.95 -116.05 24.95 -105.3 24.95 -97.7 17.35
L -97.65 17.3
Q -90.05 9.7 -90.05 -1.05 -90.05 -11.8 -97.65 -19.4
L -97.7 -19.4 -97.7 -19.45
Q -105.3 -27.05 -116.05 -27.05 -126.8 -27.05 -134.4 -19.45
M -127.55 -117.6
L -127.55 -117.55 -127.6 -117.55
Q -134.45 -110.7 -134.45 -100.95 -134.45 -91.2 -127.6 -84.35
L -127.55 -84.35 -127.55 -84.3
Q -120.7 -77.45 -110.95 -77.45 -101.2 -77.45 -94.35 -84.3
L -94.3 -84.35
Q -87.45 -91.2 -87.45 -100.95 -87.45 -110.7 -94.3 -117.55
L -94.35 -117.55 -94.35 -117.6
Q -101.2 -124.45 -110.95 -124.45 -120.7 -124.45 -127.55 -117.6
M 9 148.15
Q 18.75 148.15 25.6 141.3
L 25.65 141.25
Q 32.5 134.4 32.5 124.65 32.5 114.9 25.65 108.05
L 25.6 108.05 25.6 108
Q 18.75 101.15 9 101.15 -0.75 101.15 -7.6 108
L -7.6 108.05 -7.65 108.05
Q -14.5 114.9 -14.5 124.65 -14.5 134.4 -7.65 141.25
L -7.6 141.25 -7.6 141.3
Q -0.75 148.15 9 148.15
M 7.45 49.05
Q 7.45 39.3 0.6 32.45
L 0.55 32.45 0.55 32.4
Q -6.3 25.55 -16.05 25.55 -25.8 25.55 -32.65 32.4
L -32.65 32.45 -32.7 32.45
Q -39.55 39.3 -39.55 49.05 -39.55 58.8 -32.7 65.65
L -32.65 65.65 -32.65 65.7
Q -25.8 72.55 -16.05 72.55 -6.3 72.55 0.55 65.7
L 0.6 65.65
Q 7.45 58.8 7.45 49.05
M 109.65 89.05
Q 109.65 79.3 102.8 72.45
L 102.75 72.45 102.75 72.4
Q 95.9 65.55 86.15 65.55 76.4 65.55 69.55 72.4
L 69.55 72.45 69.5 72.45
Q 62.65 79.3 62.65 89.05 62.65 98.8 69.5 105.65
L 69.55 105.65 69.55 105.7
Q 76.4 112.55 86.15 112.55 95.9 112.55 102.75 105.7
L 102.8 105.65
Q 109.65 98.8 109.65 89.05
M 108.75 -19.9
L 108.75 -19.9
Q 99.70234375 -10.77109375 99.7 2.05 99.710546875 14.878515625 108.75 23.9 117.8771484375 33.0455078125 130.7 33.05 143.525390625 33.05 152.55 23.95
L 152.6 23.9
Q 161.7 14.875390625 161.7 2.05 161.6955078125 -10.7728515625 152.55 -19.9 143.528515625 -28.939453125 130.7 -28.95 117.87890625 -28.94765625 108.75 -19.9
M 130.9 -58.4
L 130.9 -58.45
Q 130.85 -66.65 125.15 -72.4
L 125.1 -72.4 125.1 -72.45
Q 119.35 -78.15 111.2 -78.2
L 111.15 -78.2
Q 102.95 -78.15 97.2 -72.45
L 97.2 -72.4 97.15 -72.4
Q 91.45 -66.65 91.4 -58.45
L 91.4 -58.4
Q 91.45 -50.25 97.15 -44.5
L 97.2 -44.5 97.2 -44.45
Q 102.95 -38.75 111.15 -38.7
L 111.2 -38.7
Q 119.35 -38.75 125.1 -44.45
L 125.15 -44.5
Q 130.85 -50.25 130.9 -58.4
M 10.45 -18.45
Q 10.45 -8.7 17.3 -1.85
L 17.35 -1.85 17.35 -1.8
Q 24.2 5.05 33.95 5.05 43.7 5.05 50.55 -1.8
L 50.6 -1.85
Q 57.45 -8.7 57.45 -18.45 57.45 -28.2 50.6 -35.05
L 50.55 -35.05 50.55 -35.1
Q 43.7 -41.95 33.95 -41.95 24.2 -41.95 17.35 -35.1
L 17.35 -35.05 17.3 -35.05
Q 10.45 -28.2 10.45 -18.45
M 24.1 -104.4
L 24.15 -104.45
Q 31.7384765625 -112.02578125 31.75 -122.8 31.7384765625 -133.5794921875 24.1 -141.2
L 24.15 -141.2
Q 16.5419921875 -148.7884765625 5.75 -148.8 -5.0294921875 -148.7884765625 -12.65 -141.2 -20.2384765625 -133.5794921875 -20.25 -122.8 -20.2384765625 -112.0080078125 -12.65 -104.4
L -12.65 -104.45
Q -5.0294921875 -96.8115234375 5.75 -96.8 16.52421875 -96.8115234375 24.1 -104.4
M 97.75 -129.05
L 97.75 -129.1
Q 90.9 -135.95 81.15 -135.95 71.4 -135.95 64.55 -129.1
L 64.55 -129.05 64.5 -129.05
Q 57.65 -122.2 57.65 -112.45 57.65 -102.7 64.5 -95.85
L 64.55 -95.85 64.55 -95.8
Q 71.4 -88.95 81.15 -88.95 90.9 -88.95 97.75 -95.8
L 97.8 -95.85
Q 104.65 -102.7 104.65 -112.45 104.65 -122.2 97.8 -129.05
L 97.75 -129.05 Z"/>
</g>
</defs>

<g transform="matrix( 1.1459808349609375, 1.145965576171875, -1.1458740234375, 1.1459197998046875, 513.85,498.85) ">
<g transform="matrix( 1, 0, 0, 1, 0,0) ">
<use filter="url(#Filter_1)" xlink:href="#logo_0_Layer2_0_FILL"/>
</g>

<g transform="matrix( 1, 0, 0, 1, 0,0) ">
<use filter="url(#Filter_1)" xlink:href="#logo_0_Layer1_0_FILL"/>
</g>

<g transform="matrix( 1, 0, 0, 1, 0,0) ">
<use filter="url(#Filter_1)" xlink:href="#logo_0_Layer0_0_FILL"/>
</g>
</g>

<g transform="matrix( 1.1459808349609375, 1.145965576171875, -1.1458740234375, 1.1459197998046875, 513.85,498.85) ">
<g transform="matrix( 1, 0, 0, 1, 0,0) ">
<use filter="url(#Filter_1)" xlink:href="#logo_copy_0_Layer0_0_FILL"/>
</g>
</g>
</svg>
